<svg width="60" height="61" viewBox="0 0 60 61" fill="none" xmlns="http://www.w3.org/2000/svg">
<rect y="0.5" width="60" height="60" rx="30" fill="#4B2A45"/>
<path d="M33.0462 34.7752L31.7232 39.4028C31.2275 41.135 28.7725 41.135 28.2768 39.4028L26.9553 34.7752C26.8716 34.4825 26.7147 34.2159 26.4994 34.0006C26.2841 33.7853 26.0175 33.6284 25.7248 33.5447L21.0972 32.2232C19.365 31.7275 19.365 29.2725 21.0972 28.7768L25.7248 27.4553C26.0175 27.3716 26.2841 27.2147 26.4994 26.9994C26.7147 26.7841 26.8716 26.5175 26.9553 26.2248L28.2768 21.5972C28.7725 19.865 31.2275 19.865 31.7232 21.5972L33.0447 26.2248C33.1284 26.5175 33.2853 26.7841 33.5006 26.9994C33.7159 27.2147 33.9825 27.3716 34.2752 27.4553L38.9028 28.7768C40.635 29.2725 40.635 31.7275 38.9028 32.2232L34.2752 33.5447C33.9825 33.6284 33.7159 33.7853 33.5006 34.0006C33.2853 34.2159 33.1284 34.4825 33.0447 34.7752M41.3039 42.0219L40.7425 44.2738C40.6678 44.5754 40.2392 44.5754 40.1631 44.2738L39.6001 42.0219C39.5869 41.9697 39.5598 41.9219 39.5217 41.8838C39.4836 41.8457 39.4359 41.8186 39.3836 41.8054L37.1318 41.2425C36.8301 41.1678 36.8301 40.7392 37.1318 40.6631L39.3836 40.1001C39.4359 40.0869 39.4836 40.0598 39.5217 40.0217C39.5598 39.9836 39.5869 39.9359 39.6001 39.8836L40.1631 37.6318C40.2377 37.3301 40.6663 37.3301 40.7425 37.6318L41.3054 39.8836C41.3186 39.9359 41.3457 39.9836 41.3838 40.0217C41.4219 40.0598 41.4697 40.0869 41.5219 40.1001L43.7738 40.6631C44.0754 40.7377 44.0754 41.1663 43.7738 41.2425L41.5219 41.8054C41.4697 41.8186 41.4219 41.8457 41.3838 41.8838C41.3457 41.9219 41.3171 41.9697 41.3039 42.0219ZM20.3984 21.1164L19.8369 23.3682C19.7623 23.6699 19.3322 23.6699 19.2575 23.3682L18.6946 21.1164C18.6814 21.0641 18.6543 21.0164 18.6162 20.9783C18.5781 20.9402 18.5303 20.9131 18.4781 20.8999L16.2262 20.3369C15.9246 20.2623 15.9246 19.8322 16.2262 19.7575L18.4781 19.1946C18.5303 19.1814 18.5781 19.1543 18.6162 19.1162C18.6543 19.0781 18.6814 19.0303 18.6946 18.9781L19.2575 16.7262C19.3322 16.4246 19.7623 16.4246 19.8369 16.7262L20.3999 18.9781C20.4131 19.0303 20.4402 19.0781 20.4783 19.1162C20.5164 19.1543 20.5641 19.1814 20.6164 19.1946L22.8682 19.7575C23.1699 19.8322 23.1699 20.2623 22.8682 20.3369L20.6164 20.8999C20.5641 20.9131 20.5164 20.9402 20.4783 20.9783C20.4402 21.0164 20.4116 21.0641 20.3984 21.1164Z" stroke="#C818A9" stroke-width="1.5" stroke-miterlimit="10" stroke-linecap="round" stroke-linejoin="round"/>
</svg>
