<svg width="18" height="18" viewBox="0 0 18 18" fill="none" xmlns="http://www.w3.org/2000/svg">
<path d="M14.8957 2.64143H13.229V1.8081C13.229 1.58708 13.1412 1.37512 12.9849 1.21884C12.8286 1.06256 12.6167 0.974762 12.3957 0.974762C12.1747 0.974762 11.9627 1.06256 11.8064 1.21884C11.6501 1.37512 11.5623 1.58708 11.5623 1.8081V2.64143H6.56234V1.8081C6.56234 1.58708 6.47454 1.37512 6.31826 1.21884C6.16198 1.06256 5.95002 0.974762 5.729 0.974762C5.50799 0.974762 5.29603 1.06256 5.13975 1.21884C4.98347 1.37512 4.89567 1.58708 4.89567 1.8081V2.64143H3.229C2.56596 2.64143 1.93008 2.90482 1.46124 3.37366C0.992396 3.8425 0.729004 4.47839 0.729004 5.14143V15.1414C0.729004 15.8045 0.992396 16.4404 1.46124 16.9092C1.93008 17.378 2.56596 17.6414 3.229 17.6414H14.8957C15.5587 17.6414 16.1946 17.378 16.6634 16.9092C17.1323 16.4404 17.3957 15.8045 17.3957 15.1414V5.14143C17.3957 4.47839 17.1323 3.8425 16.6634 3.37366C16.1946 2.90482 15.5587 2.64143 14.8957 2.64143ZM15.729 15.1414C15.729 15.3624 15.6412 15.5744 15.4849 15.7307C15.3286 15.887 15.1167 15.9748 14.8957 15.9748H3.229C3.00799 15.9748 2.79603 15.887 2.63975 15.7307C2.48347 15.5744 2.39567 15.3624 2.39567 15.1414V9.30809H15.729V15.1414ZM15.729 7.64143H2.39567V5.14143C2.39567 4.92041 2.48347 4.70845 2.63975 4.55217C2.79603 4.39589 3.00799 4.3081 3.229 4.3081H4.89567V5.14143C4.89567 5.36244 4.98347 5.5744 5.13975 5.73068C5.29603 5.88696 5.50799 5.97476 5.729 5.97476C5.95002 5.97476 6.16198 5.88696 6.31826 5.73068C6.47454 5.5744 6.56234 5.36244 6.56234 5.14143V4.3081H11.5623V5.14143C11.5623 5.36244 11.6501 5.5744 11.8064 5.73068C11.9627 5.88696 12.1747 5.97476 12.3957 5.97476C12.6167 5.97476 12.8286 5.88696 12.9849 5.73068C13.1412 5.5744 13.229 5.36244 13.229 5.14143V4.3081H14.8957C15.1167 4.3081 15.3286 4.39589 15.4849 4.55217C15.6412 4.70845 15.729 4.92041 15.729 5.14143V7.64143Z" fill="#CCCCCC" fill-opacity="0.8"/>
</svg>