<svg width="24" height="24" viewBox="0 0 7 7" fill="none" xmlns="http://www.w3.org/2000/svg">
<g clip-path="url(#clip0_394_622)">
<path d="M6.59375 3.63525C6.59375 1.97841 5.25059 0.635254 3.59375 0.635254C1.93691 0.635254 0.59375 1.97841 0.59375 3.63525C0.59375 5.13263 1.69081 6.37376 3.125 6.59881V4.50244H2.36328V3.63525H3.125V2.97432C3.125 2.22244 3.57289 1.80713 4.25816 1.80713C4.58638 1.80713 4.92969 1.86572 4.92969 1.86572V2.604H4.55141C4.17873 2.604 4.0625 2.83526 4.0625 3.07252V3.63525H4.89453L4.76152 4.50244H4.0625V6.59881C5.49669 6.37376 6.59375 5.13265 6.59375 3.63525Z" fill="#1877F2"/>
<path d="M4.76152 4.50244L4.89453 3.63525H4.0625V3.07252C4.0625 2.83524 4.17873 2.604 4.55141 2.604H4.92969V1.86572C4.92969 1.86572 4.58637 1.80713 4.25813 1.80713C3.57289 1.80713 3.125 2.22244 3.125 2.97432V3.63525H2.36328V4.50244H3.125V6.59881C3.28007 6.62311 3.43679 6.63529 3.59375 6.63525C3.75071 6.63529 3.90743 6.62311 4.0625 6.59881V4.50244H4.76152Z" fill="white"/>
</g>
<defs>
<clipPath id="clip0_394_622">
<rect width="6" height="6" fill="white" transform="translate(0.59375 0.635254)"/>
</clipPath>
</defs>
</svg>
