<svg width="60" height="61" viewBox="0 0 60 61" fill="none" xmlns="http://www.w3.org/2000/svg">
<rect y="0.5" width="60" height="60" rx="30" fill="#4B2A45"/>
<path d="M30.14 40.2275L30 40.3801L29.846 40.2275C23.196 33.651 18.8 29.3022 18.8 24.8924C18.8 21.8406 20.9 19.5518 23.7 19.5518C25.856 19.5518 27.956 21.0777 28.698 23.1529H31.302C32.044 21.0777 34.144 19.5518 36.3 19.5518C39.1 19.5518 41.2 21.8406 41.2 24.8924C41.2 29.3022 36.804 33.651 30.14 40.2275ZM36.3 16.5C33.864 16.5 31.526 17.736 30 19.6738C28.474 17.736 26.136 16.5 23.7 16.5C19.388 16.5 16 20.1774 16 24.8924C16 30.645 20.76 35.3599 27.97 42.4858L30 44.5L32.03 42.4858C39.24 35.3599 44 30.645 44 24.8924C44 20.1774 40.612 16.5 36.3 16.5Z" fill="#C818A9"/>
</svg>
