<svg width="60" height="61" viewBox="0 0 60 61" fill="none" xmlns="http://www.w3.org/2000/svg">
<rect y="0.5" width="60" height="60" rx="30" fill="#4B2A45"/>
<path d="M23 44.5C22.0278 44.5 21.2014 44.1449 20.5208 43.4348C19.8403 42.7246 19.5 41.8623 19.5 40.8478C19.5 39.8333 19.8403 38.971 20.5208 38.2609C21.2014 37.5507 22.0278 37.1957 23 37.1957C23.2722 37.1957 23.525 37.2261 23.7583 37.287C23.9917 37.3478 24.2153 37.429 24.4292 37.5304L26.0917 35.3696C25.5472 34.7406 25.1681 34.0304 24.9542 33.2391C24.7403 32.4478 24.6917 31.6565 24.8083 30.8652L22.4458 30.0435C22.1153 30.5507 21.6972 30.9565 21.1917 31.2609C20.6861 31.5652 20.1222 31.7174 19.5 31.7174C18.5278 31.7174 17.7014 31.3623 17.0208 30.6522C16.3403 29.942 16 29.0797 16 28.0652C16 27.0507 16.3403 26.1884 17.0208 25.4783C17.7014 24.7681 18.5278 24.413 19.5 24.413C20.4722 24.413 21.2986 24.7681 21.9792 25.4783C22.6597 26.1884 23 27.0507 23 28.0652V28.3087L25.3625 29.1609C25.7514 28.4304 26.2717 27.8116 26.9235 27.3043C27.5753 26.7971 28.3091 26.4725 29.125 26.3304V23.6826C28.3667 23.4594 27.7398 23.0281 27.2443 22.3885C26.7489 21.749 26.5008 21.0035 26.5 20.1522C26.5 19.1377 26.8403 18.2754 27.5208 17.5652C28.2014 16.8551 29.0278 16.5 30 16.5C30.9722 16.5 31.7986 16.8551 32.4792 17.5652C33.1597 18.2754 33.5 19.1377 33.5 20.1522C33.5 21.0043 33.2472 21.7502 32.7417 22.3897C32.2361 23.0293 31.6139 23.4602 30.875 23.6826V26.3304C31.6917 26.4725 32.4259 26.7971 33.0777 27.3043C33.7294 27.8116 34.2494 28.4304 34.6375 29.1609L37 28.3087V28.0652C37 27.0507 37.3403 26.1884 38.0208 25.4783C38.7014 24.7681 39.5278 24.413 40.5 24.413C41.4722 24.413 42.2986 24.7681 42.9792 25.4783C43.6597 26.1884 44 27.0507 44 28.0652C44 29.0797 43.6597 29.942 42.9792 30.6522C42.2986 31.3623 41.4722 31.7174 40.5 31.7174C39.8778 31.7174 39.3088 31.5652 38.7932 31.2609C38.2775 30.9565 37.8645 30.5507 37.5542 30.0435L35.1917 30.8652C35.3083 31.6565 35.2597 32.443 35.0458 33.2245C34.8319 34.0061 34.4528 34.7211 33.9083 35.3696L35.5708 37.5C35.7847 37.3986 36.0083 37.3227 36.2417 37.2723C36.475 37.222 36.7278 37.1965 37 37.1957C37.9722 37.1957 38.7986 37.5507 39.4792 38.2609C40.1597 38.971 40.5 39.8333 40.5 40.8478C40.5 41.8623 40.1597 42.7246 39.4792 43.4348C38.7986 44.1449 37.9722 44.5 37 44.5C36.0278 44.5 35.2014 44.1449 34.5208 43.4348C33.8403 42.7246 33.5 41.8623 33.5 40.8478C33.5 40.442 33.5634 40.0517 33.6902 39.6767C33.8169 39.3017 33.9869 38.9617 34.2 38.6565L32.5375 36.4957C31.7403 36.9623 30.8898 37.1957 29.986 37.1957C29.0822 37.1957 28.2313 36.9623 27.4333 36.4957L25.8 38.6565C26.0139 38.9609 26.1842 39.3009 26.311 39.6767C26.4378 40.0525 26.5008 40.4428 26.5 40.8478C26.5 41.8623 26.1597 42.7246 25.4792 43.4348C24.7986 44.1449 23.9722 44.5 23 44.5ZM19.5 29.2826C19.8306 29.2826 20.1078 29.1657 20.3318 28.932C20.5558 28.6983 20.6674 28.4093 20.6667 28.0652C20.6659 27.7211 20.5539 27.4322 20.3307 27.1984C20.1074 26.9647 19.8306 26.8478 19.5 26.8478C19.1694 26.8478 18.8926 26.9647 18.6693 27.1984C18.4461 27.4322 18.3341 27.7211 18.3333 28.0652C18.3326 28.4093 18.4446 28.6987 18.6693 28.9332C18.8941 29.1678 19.171 29.2842 19.5 29.2826ZM23 42.0652C23.3306 42.0652 23.6078 41.9483 23.8318 41.7146C24.0558 41.4809 24.1674 41.1919 24.1667 40.8478C24.1659 40.5037 24.0539 40.2148 23.8307 39.981C23.6074 39.7473 23.3306 39.6304 23 39.6304C22.6694 39.6304 22.3926 39.7473 22.1693 39.981C21.9461 40.2148 21.8341 40.5037 21.8333 40.8478C21.8326 41.1919 21.9446 41.4813 22.1693 41.7158C22.3941 41.9504 22.671 42.0668 23 42.0652ZM30 21.3696C30.3306 21.3696 30.6078 21.2527 30.8318 21.019C31.0558 20.7852 31.1674 20.4963 31.1667 20.1522C31.1659 19.8081 31.0539 19.5191 30.8307 19.2854C30.6074 19.0517 30.3306 18.9348 30 18.9348C29.6694 18.9348 29.3926 19.0517 29.1693 19.2854C28.9461 19.5191 28.8341 19.8081 28.8333 20.1522C28.8326 20.4963 28.9446 20.7856 29.1693 21.0202C29.3941 21.2547 29.671 21.3712 30 21.3696ZM30 34.7609C30.8167 34.7609 31.5069 34.4667 32.0708 33.8783C32.6347 33.2899 32.9167 32.5696 32.9167 31.7174C32.9167 30.8652 32.6347 30.1449 32.0708 29.5565C31.5069 28.9681 30.8167 28.6739 30 28.6739C29.1833 28.6739 28.4931 28.9681 27.9292 29.5565C27.3653 30.1449 27.0833 30.8652 27.0833 31.7174C27.0833 32.5696 27.3653 33.2899 27.9292 33.8783C28.4931 34.4667 29.1833 34.7609 30 34.7609ZM37 42.0652C37.3306 42.0652 37.6078 41.9483 37.8318 41.7146C38.0558 41.4809 38.1674 41.1919 38.1667 40.8478C38.1659 40.5037 38.0539 40.2148 37.8307 39.981C37.6074 39.7473 37.3306 39.6304 37 39.6304C36.6694 39.6304 36.3926 39.7473 36.1693 39.981C35.9461 40.2148 35.8341 40.5037 35.8333 40.8478C35.8326 41.1919 35.9446 41.4813 36.1693 41.7158C36.3941 41.9504 36.671 42.0668 37 42.0652ZM40.5 29.2826C40.8306 29.2826 41.1078 29.1657 41.3318 28.932C41.5558 28.6983 41.6674 28.4093 41.6667 28.0652C41.6659 27.7211 41.5539 27.4322 41.3307 27.1984C41.1074 26.9647 40.8306 26.8478 40.5 26.8478C40.1694 26.8478 39.8926 26.9647 39.6693 27.1984C39.4461 27.4322 39.3341 27.7211 39.3333 28.0652C39.3326 28.4093 39.4446 28.6987 39.6693 28.9332C39.8941 29.1678 40.171 29.2842 40.5 29.2826Z" fill="#C818A9"/>
</svg>
