<svg width="24" height="24" viewBox="0 0 6 7" fill="none" xmlns="http://www.w3.org/2000/svg">
<g clip-path="url(#clip0_394_633)">
<path d="M4.59375 0.635254H1.40625C0.6296 0.635254 0 1.26485 0 2.0415V5.229C0 6.00565 0.6296 6.63525 1.40625 6.63525H4.59375C5.3704 6.63525 6 6.00565 6 5.229V2.0415C6 1.26485 5.3704 0.635254 4.59375 0.635254Z" fill="url(#paint0_radial_394_633)"/>
<path d="M4.59375 0.635254H1.40625C0.6296 0.635254 0 1.26485 0 2.0415V5.229C0 6.00565 0.6296 6.63525 1.40625 6.63525H4.59375C5.3704 6.63525 6 6.00565 6 5.229V2.0415C6 1.26485 5.3704 0.635254 4.59375 0.635254Z" fill="url(#paint1_radial_394_633)"/>
<path d="M3.00021 1.2915C2.3637 1.2915 2.2838 1.29429 2.03381 1.30566C1.7843 1.3171 1.61398 1.35659 1.46496 1.41455C1.31079 1.47441 1.18003 1.5545 1.04977 1.68481C0.919383 1.8151 0.839297 1.94586 0.77925 2.09996C0.721125 2.24902 0.681586 2.41941 0.670359 2.66881C0.65918 2.91882 0.65625 2.99874 0.65625 3.63528C0.65625 4.27182 0.659063 4.35146 0.670406 4.60144C0.681891 4.85096 0.721383 5.02128 0.779297 5.17029C0.839203 5.32447 0.919289 5.45522 1.0496 5.58549C1.17984 5.71587 1.3106 5.79614 1.46466 5.856C1.61379 5.91397 1.78413 5.95346 2.0336 5.96489C2.28361 5.97626 2.36344 5.97905 2.99993 5.97905C3.63652 5.97905 3.71616 5.97626 3.96614 5.96489C4.21566 5.95346 4.38616 5.91397 4.5353 5.856C4.6894 5.79614 4.81997 5.71587 4.95019 5.58549C5.08057 5.45522 5.16063 5.32447 5.2207 5.17036C5.27831 5.02128 5.31787 4.85091 5.32959 4.60149C5.34082 4.3515 5.34375 4.27182 5.34375 3.63528C5.34375 2.99874 5.34082 2.91886 5.32959 2.66886C5.31787 2.41934 5.27831 2.24904 5.2207 2.10003C5.16063 1.94586 5.08057 1.8151 4.95019 1.68481C4.81983 1.55445 4.68945 1.47436 4.53516 1.41457C4.38574 1.35659 4.21533 1.31707 3.96581 1.30566C3.7158 1.29429 3.63621 1.2915 2.99948 1.2915H3.00021ZM2.78995 1.71387C2.85237 1.71378 2.922 1.71387 3.00021 1.71387C3.62602 1.71387 3.70017 1.71612 3.9473 1.72735C4.17581 1.7378 4.29984 1.77598 4.38246 1.80807C4.49184 1.85054 4.56982 1.90132 4.6518 1.98338C4.73384 2.06541 4.7846 2.14353 4.82719 2.25291C4.85927 2.33541 4.8975 2.45944 4.90791 2.68796C4.91913 2.93504 4.92157 3.00924 4.92157 3.63474C4.92157 4.26024 4.91913 4.33447 4.90791 4.58152C4.89745 4.81004 4.85927 4.93407 4.82719 5.01659C4.78472 5.12597 4.73384 5.20386 4.6518 5.28584C4.56977 5.36787 4.49189 5.41864 4.38246 5.46113C4.29994 5.49336 4.17581 5.53144 3.9473 5.54189C3.70022 5.55312 3.62602 5.55556 3.00021 5.55556C2.37438 5.55556 2.3002 5.55312 2.05315 5.54189C1.82463 5.53135 1.7006 5.49317 1.61791 5.46108C1.50855 5.41859 1.43041 5.36782 1.34838 5.28579C1.26635 5.20376 1.21559 5.12583 1.173 5.0164C1.14091 4.93388 1.10269 4.80985 1.09228 4.58133C1.08105 4.33425 1.0788 4.26005 1.0788 3.63415C1.0788 3.00825 1.08105 2.93445 1.09228 2.68737C1.10273 2.45886 1.14091 2.33482 1.173 2.25221C1.21549 2.14282 1.26635 2.06471 1.34841 1.98268C1.43046 1.90064 1.50855 1.84986 1.61794 1.80729C1.70055 1.77507 1.82463 1.73698 2.05315 1.72648C2.26936 1.71671 2.35315 1.71378 2.78995 1.71329V1.71387ZM4.2513 2.10303C4.09603 2.10303 3.97005 2.22889 3.97005 2.38418C3.97005 2.53946 4.09603 2.66543 4.2513 2.66543C4.40658 2.66543 4.53255 2.53946 4.53255 2.38418C4.53255 2.22891 4.40658 2.10293 4.2513 2.10293V2.10303ZM3.00021 2.43164C2.33552 2.43164 1.7966 2.97057 1.7966 3.63528C1.7966 4.29999 2.33552 4.83865 3.00021 4.83865C3.66492 4.83865 4.20366 4.29999 4.20366 3.63528C4.20366 2.97059 3.66488 2.43164 3.00016 2.43164H3.00021ZM3.00021 2.85401C3.43167 2.85401 3.78148 3.20377 3.78148 3.63528C3.78148 4.06674 3.43167 4.41654 3.00021 4.41654C2.56875 4.41654 2.21897 4.06674 2.21897 3.63528C2.21897 3.20377 2.56873 2.85401 3.00021 2.85401Z" fill="white"/>
</g>
<defs>
<radialGradient id="paint0_radial_394_633" cx="0" cy="0" r="1" gradientUnits="userSpaceOnUse" gradientTransform="translate(1.59375 7.09737) rotate(-90) scale(5.94645 5.53066)">
<stop stop-color="#FFDD55"/>
<stop offset="0.1" stop-color="#FFDD55"/>
<stop offset="0.5" stop-color="#FF543E"/>
<stop offset="1" stop-color="#C837AB"/>
</radialGradient>
<radialGradient id="paint1_radial_394_633" cx="0" cy="0" r="1" gradientUnits="userSpaceOnUse" gradientTransform="translate(-1.00502 1.06746) rotate(78.681) scale(2.65809 10.9567)">
<stop stop-color="#3771C8"/>
<stop offset="0.128" stop-color="#3771C8"/>
<stop offset="1" stop-color="#6600FF" stop-opacity="0"/>
</radialGradient>
<clipPath id="clip0_394_633">
<rect width="6" height="6" fill="white" transform="translate(0 0.635254)"/>
</clipPath>
</defs>
</svg>
