<svg width="24" height="24" viewBox="0 0 7 7" fill="none" xmlns="http://www.w3.org/2000/svg">
<g opacity="0.7" clip-path="url(#clip0_394_639)">
<path d="M5.32288 0.635254H2.13538C1.35873 0.635254 0.729126 1.26485 0.729126 2.0415V5.229C0.729126 6.00565 1.35873 6.63525 2.13538 6.63525H5.32288C6.09953 6.63525 6.72913 6.00565 6.72913 5.229V2.0415C6.72913 1.26485 6.09953 0.635254 5.32288 0.635254Z" fill="white"/>
<path d="M5.32288 0.635254H2.13538C1.35873 0.635254 0.729126 1.26485 0.729126 2.0415V5.229C0.729126 6.00565 1.35873 6.63525 2.13538 6.63525H5.32288C6.09953 6.63525 6.72913 6.00565 6.72913 5.229V2.0415C6.72913 1.26485 6.09953 0.635254 5.32288 0.635254Z" fill="#0A66C2"/>
<path d="M5.05838 5.73725H5.7444C5.76926 5.73725 5.7931 5.72737 5.81068 5.7098C5.82826 5.69222 5.83814 5.66838 5.83815 5.64352L5.8385 4.1941C5.8385 3.43653 5.67526 2.85422 4.78995 2.85422C4.45341 2.84171 4.13605 3.01519 3.96479 3.30488C3.96395 3.30629 3.96268 3.30738 3.96116 3.308C3.95964 3.30861 3.95797 3.30871 3.95639 3.30828C3.95481 3.30786 3.95341 3.30692 3.95241 3.30563C3.95141 3.30433 3.95086 3.30274 3.95084 3.30111V3.01791C3.95084 2.99305 3.94097 2.9692 3.92339 2.95162C3.9058 2.93404 3.88196 2.92416 3.85709 2.92416H3.20607C3.18121 2.92416 3.15736 2.93404 3.13978 2.95162C3.1222 2.9692 3.11232 2.99305 3.11232 3.01791V5.64338C3.11232 5.66824 3.1222 5.69209 3.13978 5.70967C3.15736 5.72725 3.18121 5.73713 3.20607 5.73713H3.89204C3.9169 5.73713 3.94075 5.72725 3.95833 5.70967C3.97591 5.69209 3.98579 5.66824 3.98579 5.64338V4.34557C3.98579 3.97861 4.0554 3.62323 4.51034 3.62323C4.95882 3.62323 4.96463 4.04314 4.96463 4.36934V5.6435C4.96463 5.66836 4.97451 5.69221 4.99209 5.70979C5.00967 5.72737 5.03352 5.73725 5.05838 5.73725ZM1.61975 2.03279C1.61975 2.31085 1.84867 2.53964 2.12675 2.53964C2.40477 2.53962 2.63354 2.31068 2.63354 2.03267C2.63349 1.75465 2.4047 1.52588 2.12666 1.52588C1.84855 1.52588 1.61975 1.75472 1.61975 2.03279ZM1.78285 5.73725H2.46974C2.4946 5.73725 2.51845 5.72737 2.53603 5.70979C2.55361 5.69221 2.56349 5.66836 2.56349 5.6435V3.01791C2.56349 2.99305 2.55361 2.9692 2.53603 2.95162C2.51845 2.93404 2.4946 2.92416 2.46974 2.92416H1.78285C1.75799 2.92416 1.73414 2.93404 1.71656 2.95162C1.69898 2.9692 1.6891 2.99305 1.6891 3.01791V5.6435C1.6891 5.66836 1.69898 5.69221 1.71656 5.70979C1.73414 5.72737 1.75799 5.73725 1.78285 5.73725Z" fill="white"/>
</g>
<defs>
<clipPath id="clip0_394_639">
<rect width="6" height="6" fill="white" transform="translate(0.729126 0.635254)"/>
</clipPath>
</defs>
</svg>
