
<svg width="13" height="18" viewBox="0 0 13 18" fill="none" xmlns="http://www.w3.org/2000/svg">
<path d="M12.2091 6.80809C12.2091 6.04205 12.0582 5.28351 11.7651 4.57578C11.4719 3.86804 11.0422 3.22498 10.5005 2.68331C9.95887 2.14163 9.31581 1.71195 8.60807 1.4188C7.90034 1.12565 7.1418 0.974762 6.37575 0.974762C5.60971 0.974762 4.85117 1.12565 4.14343 1.4188C3.4357 1.71195 2.79264 2.14163 2.25096 2.68331C1.70929 3.22498 1.27961 3.86804 0.986455 4.57578C0.693303 5.28351 0.542419 6.04205 0.542419 6.80809C0.542419 7.96393 0.883253 9.03893 1.46325 9.9456H1.45659L6.37575 17.6414L11.2949 9.9456H11.2891C11.8899 9.00943 12.2092 7.92045 12.2091 6.80809ZM6.37575 9.30809C5.71271 9.30809 5.07683 9.0447 4.60799 8.57586C4.13914 8.10702 3.87575 7.47114 3.87575 6.80809C3.87575 6.14505 4.13914 5.50917 4.60799 5.04033C5.07683 4.57149 5.71271 4.3081 6.37575 4.3081C7.03879 4.3081 7.67468 4.57149 8.14352 5.04033C8.61236 5.50917 8.87575 6.14505 8.87575 6.80809C8.87575 7.47114 8.61236 8.10702 8.14352 8.57586C7.67468 9.0447 7.03879 9.30809 6.37575 9.30809Z" fill="#CCCCCC"/>
</svg>
