<svg width="60" height="61" viewBox="0 0 60 61" fill="none" xmlns="http://www.w3.org/2000/svg">
<rect y="0.5" width="60" height="60" rx="30" fill="#4B2A45"/>
<path d="M17 37.8125C17 39.0557 17.4939 40.248 18.3729 41.1271C19.252 42.0061 20.4443 42.5 21.6875 42.5C22.9307 42.5 24.123 42.0061 25.0021 41.1271C25.8811 40.248 26.375 39.0557 26.375 37.8125C26.375 36.5693 25.8811 35.377 25.0021 34.4979C24.123 33.6189 22.9307 33.125 21.6875 33.125C20.4443 33.125 19.252 33.6189 18.3729 34.4979C17.4939 35.377 17 36.5693 17 37.8125ZM32.625 37.8125C32.625 39.0557 33.1189 40.248 33.9979 41.1271C34.877 42.0061 36.0693 42.5 37.3125 42.5C38.5557 42.5 39.748 42.0061 40.6271 41.1271C41.5061 40.248 42 39.0557 42 37.8125C42 36.5693 41.5061 35.377 40.6271 34.4979C39.748 33.6189 38.5557 33.125 37.3125 33.125C36.0693 33.125 34.877 33.6189 33.9979 34.4979C33.1189 35.377 32.625 36.5693 32.625 37.8125Z" stroke="#C818A9" stroke-width="2" stroke-linecap="round" stroke-linejoin="round"/>
<path d="M26.375 37.8125V17.5H42V37.8125M26.375 23.75H42" stroke="#C818A9" stroke-width="2" stroke-linecap="round" stroke-linejoin="round"/>
</svg>
