<svg width="60" height="61" viewBox="0 0 60 61" fill="none" xmlns="http://www.w3.org/2000/svg">
<rect y="0.5" width="60" height="60" rx="30" fill="#4B2A45"/>
<path d="M29.9297 24.8915V19.2785M29.9297 17.6005V16.5M33.7388 18.0752L33.3104 19.4211M32.8748 20.7182L31.5054 24.9195M34.2213 24.1805L33.6509 24.9052M39.5437 23.1106L35.129 26.3983M35.1524 28.5016L37.4561 27.7326M39.1432 27.2188L42.6782 26.0265M35.1524 30.4772H40.7665M42.5564 30.4772H44M35.1524 32.0335L36.5419 32.4385M37.8624 32.9054L41.2464 34.0664M34.9219 23.2031L38.1659 18.7374M29.9297 35.8838V37.5866M29.9297 39.0999V44.5M28.0603 35.8838L26.8492 39.798M26.4435 41.181L26.0209 42.5022M31.661 35.8246L32.4717 38.3765M32.8539 39.6886L33.9843 43.2113M33.6053 35.5517L37.768 41.308M35.0879 34.1127L37.574 36.0609M39.0605 37.0663L40.7085 38.3426M26.0685 35.6357L25.2565 36.6613M24.3091 38.1655L21.5809 41.8341M18.8526 38.381L18.4489 38.7014M24.6718 34.0365L20.263 37.4486M24.5311 32.0426L22.3655 32.7895M20.6719 33.3247L17.2209 34.5307M24.5311 30.4772H20.7689M19.339 30.4772H16M27.3291 22.3188L28.1501 24.8909M26.0118 18.0953L26.8713 20.7964M21.9045 19.1274L26.0958 25.0973M18.9666 22.2205L20.5664 23.4889M21.9377 24.5269L24.5591 26.5116M18.4567 26.6139L21.7306 27.6772M23.1813 28.1519L24.5311 28.5862" stroke="#C818A9" stroke-width="1.5" stroke-linecap="round" stroke-linejoin="round"/>
</svg>
