<svg width="20" height="21" viewBox="0 0 20 21" fill="none" xmlns="http://www.w3.org/2000/svg">
<path d="M11.6667 9.78289C11.6667 9.32265 12.0398 8.94955 12.5 8.94955C12.9603 8.94955 13.3334 9.32265 13.3334 9.78289V11.4496C13.3334 11.9098 12.9603 12.2829 12.5 12.2829C12.0398 12.2829 11.6667 11.9098 11.6667 11.4496V9.78289Z" stroke="#CCCCCC" stroke-width="1.5"/>
<path d="M11.6733 16.452L10.9233 16.4498V16.4498L11.6733 16.452ZM11.6781 14.7829L12.4281 14.7851V14.7829H11.6781ZM2.62467 16.3066L2.095 16.8376H2.095L2.62467 16.3066ZM2.62467 4.92587L2.095 4.39488L2.095 4.39488L2.62467 4.92587ZM2.46092 9.16094L2.09525 9.81575H2.09525L2.46092 9.16094ZM1.6755 8.10745L0.926163 8.07594L1.6755 8.10745ZM2.46092 12.0715L2.09525 11.4167L2.09525 11.4167L2.46092 12.0715ZM1.6755 13.125L2.42484 13.0935L1.6755 13.125ZM17.5391 9.16094L17.9048 9.81575L17.5391 9.16094ZM18.3245 8.10745L19.0739 8.07594V8.07594L18.3245 8.10745ZM17.3754 4.92587L17.905 4.39488L17.905 4.39488L17.3754 4.92587ZM17.5391 12.0715L17.1734 12.7263L17.1734 12.7263L17.5391 12.0715ZM18.3245 13.125L19.0739 13.1565V13.1565L18.3245 13.125ZM17.3754 16.3066L17.905 16.8376H17.905L17.3754 16.3066ZM18.2864 12.5595L18.9408 12.1932L18.9408 12.1932L18.2864 12.5595ZM18.2864 8.67291L18.9408 9.03925L18.9408 9.03925L18.2864 8.67291ZM1.71364 12.5595L1.0592 12.1932H1.0592L1.71364 12.5595ZM1.71364 8.67291L2.36808 8.30657L2.36808 8.30656L1.71364 8.67291ZM11.6781 6.44955H12.4281L12.4281 6.44738L11.6781 6.44955ZM11.672 4.36501L10.922 4.36719V4.36719L11.672 4.36501ZM13.7732 3.96531L13.7925 3.21556L13.7732 3.96531ZM14.1947 17.253L14.2264 18.0023H14.2264L14.1947 17.253ZM11.5496 17.1613L11.02 16.6302L11.02 16.6302L11.5496 17.1613ZM11.6733 16.452L12.4232 16.4542L12.4281 14.7851L11.6781 14.7829L10.9281 14.7807L10.9233 16.4498L11.6733 16.452ZM12.5135 13.9496V14.6996C12.5624 14.6996 12.5989 14.7386 12.5989 14.7829H13.3489H14.0989C14.0989 13.9067 13.3873 13.1996 12.5135 13.1996V13.9496ZM12.5135 13.9496V13.1996C11.6397 13.1996 10.9281 13.9067 10.9281 14.7829H11.6781H12.4281C12.4281 14.7386 12.4646 14.6996 12.5135 14.6996V13.9496ZM8.3292 3.94955V4.69955H11.2543V3.94955V3.19955H8.3292V3.94955ZM10.8399 17.2829V16.5329H8.3292V17.2829V18.0329H10.8399V17.2829ZM8.3292 17.2829V16.5329C6.73279 16.5329 5.61074 16.5313 4.76221 16.4175C3.93506 16.3066 3.48106 16.1015 3.15434 15.7756L2.62467 16.3066L2.095 16.8376C2.74702 17.488 3.57002 17.771 4.56282 17.9042C5.53424 18.0345 6.77509 18.0329 8.3292 18.0329V17.2829ZM8.3292 3.94955V3.19955C6.77509 3.19955 5.53424 3.19797 4.56282 3.32825C3.57002 3.4614 2.74702 3.74447 2.095 4.39488L2.62467 4.92587L3.15434 5.45685C3.48106 5.13094 3.93506 4.92587 4.76221 4.81494C5.61074 4.70114 6.73279 4.69955 8.3292 4.69955V3.94955ZM2.46092 9.16094L2.09525 9.81575C2.37882 9.97411 2.56674 10.2742 2.56674 10.6162H3.31674H4.06674C4.06674 9.70766 3.56431 8.91809 2.8266 8.50612L2.46092 9.16094ZM1.6755 8.10745L2.42484 8.13895C2.4898 6.59393 2.70133 5.90874 3.15434 5.45685L2.62467 4.92587L2.095 4.39488C1.20023 5.28742 0.991964 6.51083 0.926163 8.07594L1.6755 8.10745ZM3.31674 10.6162H2.56674C2.56674 10.9582 2.37882 11.2583 2.09525 11.4167L2.46092 12.0715L2.8266 12.7263C3.56431 12.3144 4.06674 11.5248 4.06674 10.6162H3.31674ZM1.6755 13.125L0.926163 13.1565C0.991964 14.7216 1.20023 15.945 2.095 16.8376L2.62467 16.3066L3.15434 15.7756C2.70133 15.3237 2.4898 14.6385 2.42484 13.0935L1.6755 13.125ZM16.6833 10.6162H17.4333C17.4333 10.2742 17.6212 9.97411 17.9048 9.81575L17.5391 9.16094L17.1734 8.50612C16.4357 8.91809 15.9333 9.70766 15.9333 10.6162H16.6833ZM18.3245 8.10745L19.0739 8.07594C19.0081 6.51083 18.7998 5.28742 17.905 4.39488L17.3754 4.92587L16.8457 5.45685C17.2987 5.90874 17.5102 6.59393 17.5752 8.13895L18.3245 8.10745ZM17.5391 12.0715L17.9048 11.4167C17.6212 11.2583 17.4333 10.9582 17.4333 10.6162H16.6833H15.9333C15.9333 11.5248 16.4357 12.3143 17.1734 12.7263L17.5391 12.0715ZM18.3245 13.125L17.5752 13.0935C17.5102 14.6385 17.2987 15.3237 16.8457 15.7756L17.3754 16.3066L17.905 16.8376C18.7998 15.945 19.0081 14.7216 19.0739 13.1565L18.3245 13.125ZM17.5391 12.0715L17.1734 12.7263C17.4114 12.8592 17.5624 12.9439 17.6634 13.0076C17.6866 13.0222 17.7036 13.0335 17.7157 13.042C17.7281 13.0507 17.7325 13.0544 17.7315 13.0536C17.731 13.0531 17.7198 13.0439 17.7036 13.0262C17.6877 13.0088 17.6597 12.9755 17.632 12.9259L18.2864 12.5595L18.9408 12.1932C18.8609 12.0504 18.755 11.9535 18.6885 11.8984C18.6157 11.8381 18.5364 11.7847 18.4637 11.7389C18.3204 11.6485 18.1266 11.5406 17.9048 11.4167L17.5391 12.0715ZM18.3245 13.125L19.0739 13.1565C19.0798 13.0159 19.0869 12.8621 19.0812 12.7322C19.0754 12.6003 19.0548 12.3967 18.9408 12.1932L18.2864 12.5595L17.632 12.9259C17.6033 12.8746 17.5907 12.8307 17.5854 12.8063C17.5807 12.7848 17.5818 12.7782 17.5827 12.7982C17.5835 12.8178 17.5837 12.8494 17.5824 12.9017C17.5811 12.9538 17.5785 13.0146 17.5752 13.0935L18.3245 13.125ZM17.5391 9.16094L17.9048 9.81575C18.1266 9.69187 18.3204 9.58394 18.4637 9.49355C18.5364 9.44773 18.6157 9.39431 18.6885 9.33402C18.755 9.27889 18.8609 9.18208 18.9408 9.03925L18.2864 8.67291L17.632 8.30656C17.6597 8.25695 17.6877 8.22364 17.7036 8.20624C17.7198 8.18852 17.731 8.17936 17.7315 8.17889C17.7325 8.17809 17.7281 8.18179 17.7157 8.19045C17.7036 8.19894 17.6866 8.21025 17.6634 8.22487C17.5624 8.28858 17.4114 8.37324 17.1734 8.50612L17.5391 9.16094ZM18.3245 8.10745L17.5752 8.13895C17.5785 8.21784 17.5811 8.27867 17.5824 8.33075C17.5837 8.38308 17.5835 8.41465 17.5827 8.43429C17.5818 8.45425 17.5807 8.44765 17.5854 8.42618C17.5907 8.40174 17.6033 8.35781 17.632 8.30657L18.2864 8.67291L18.9408 9.03925C19.0548 8.83571 19.0754 8.63211 19.0812 8.50021C19.0869 8.37035 19.0798 8.21659 19.0739 8.07594L18.3245 8.10745ZM2.46092 12.0715L2.09525 11.4167C1.87341 11.5406 1.67961 11.6485 1.53631 11.7389C1.46367 11.7847 1.38436 11.8381 1.31158 11.8984C1.24504 11.9535 1.13915 12.0504 1.0592 12.1932L1.71364 12.5595L2.36808 12.9259C2.34031 12.9755 2.31237 13.0088 2.29643 13.0262C2.28019 13.0439 2.26906 13.0531 2.2685 13.0536C2.26753 13.0544 2.27195 13.0507 2.28432 13.042C2.29645 13.0335 2.31341 13.0222 2.3366 13.0076C2.4376 12.9439 2.58864 12.8592 2.8266 12.7263L2.46092 12.0715ZM1.6755 13.125L2.42484 13.0935C2.42152 13.0146 2.41899 12.9538 2.41764 12.9017C2.4163 12.8494 2.41653 12.8178 2.41739 12.7982C2.41827 12.7782 2.41929 12.7848 2.41466 12.8063C2.40938 12.8307 2.39676 12.8746 2.36808 12.9259L1.71364 12.5595L1.0592 12.1932C0.945264 12.3967 0.92464 12.6003 0.918838 12.7322C0.913126 12.8621 0.920251 13.0159 0.926163 13.1565L1.6755 13.125ZM2.46092 9.16094L2.8266 8.50612C2.58864 8.37324 2.43759 8.28858 2.3366 8.22487C2.31341 8.21025 2.29644 8.19894 2.28432 8.19045C2.27195 8.18179 2.26753 8.17809 2.2685 8.17889C2.26906 8.17936 2.28019 8.18852 2.29643 8.20624C2.31237 8.22364 2.34031 8.25695 2.36808 8.30657L1.71364 8.67291L1.0592 9.03925C1.13915 9.18208 1.24504 9.27889 1.31158 9.33402C1.38436 9.39431 1.46367 9.44773 1.53631 9.49355C1.67961 9.58394 1.87341 9.69187 2.09525 9.81575L2.46092 9.16094ZM1.6755 8.10745L0.926163 8.07594C0.920251 8.21658 0.913126 8.37035 0.918838 8.50021C0.92464 8.63211 0.945264 8.83572 1.0592 9.03925L1.71364 8.67291L2.36808 8.30656C2.39676 8.3578 2.40938 8.40174 2.41466 8.42618C2.41929 8.44765 2.41827 8.45425 2.41739 8.43429C2.41653 8.41465 2.4163 8.38308 2.41764 8.33075C2.41899 8.27867 2.42152 8.21784 2.42484 8.13895L1.6755 8.10745ZM11.6781 6.44955L12.4281 6.44738L12.422 4.36284L11.672 4.36501L10.922 4.36719L10.9281 6.45173L11.6781 6.44955ZM12.5135 7.28289V6.53289C12.4646 6.53289 12.4281 6.49382 12.4281 6.44955H11.6781H10.9281C10.9281 7.32576 11.6397 8.03289 12.5135 8.03289V7.28289ZM13.3489 6.44955H12.5989C12.5989 6.49382 12.5624 6.53289 12.5135 6.53289V7.28289V8.03289C13.3873 8.03289 14.0989 7.32576 14.0989 6.44955H13.3489ZM13.3489 4.37971H12.5989V6.44955H13.3489H14.0989V4.37971H13.3489ZM13.7732 3.96531L13.7538 4.71506C15.5807 4.76218 16.3491 4.96146 16.8457 5.45686L17.3754 4.92587L17.905 4.39488C16.9388 3.43105 15.578 3.26161 13.7925 3.21556L13.7732 3.96531ZM13.3489 4.37971H14.0989C14.0989 4.56603 13.9454 4.72 13.7538 4.71506L13.7732 3.96531L13.7925 3.21556C13.1349 3.19859 12.5989 3.72838 12.5989 4.37971H13.3489ZM11.2543 3.94955V4.69955C11.073 4.69955 10.9226 4.55266 10.922 4.36719L11.672 4.36501L12.422 4.36284C12.4202 3.71808 11.8962 3.19955 11.2543 3.19955V3.94955ZM14.1947 17.253L14.2264 18.0023C15.7902 17.9363 17.0124 17.728 17.905 16.8376L17.3754 16.3066L16.8457 15.7756C16.3931 16.2271 15.7066 16.4385 14.1631 16.5037L14.1947 17.253ZM13.3489 14.7829H12.5989V16.43H13.3489H14.0989V14.7829H13.3489ZM11.6733 16.452L10.9233 16.4498C10.923 16.5505 10.9227 16.6259 10.9209 16.6899C10.9191 16.7542 10.9161 16.7884 10.9137 16.806C10.9114 16.823 10.9121 16.8038 10.9273 16.7673C10.9449 16.7248 10.9751 16.675 11.02 16.6302L11.5496 17.1613L12.0791 17.6924C12.3026 17.4696 12.3728 17.2061 12.3998 17.0099C12.4237 16.8353 12.4227 16.6289 12.4232 16.4542L11.6733 16.452ZM10.8399 17.2829V18.0329C11.0146 18.0329 11.221 18.0345 11.3958 18.011C11.592 17.9847 11.8557 17.9151 12.0791 17.6924L11.5496 17.1613L11.02 16.6302C11.0649 16.5854 11.1149 16.5553 11.1574 16.5378C11.194 16.5228 11.2132 16.5221 11.1961 16.5244C11.1786 16.5267 11.1444 16.5296 11.08 16.5312C11.0161 16.5328 10.9407 16.5329 10.8399 16.5329V17.2829ZM14.1947 17.253L14.1631 16.5037C14.0619 16.508 13.9868 16.5111 13.9232 16.5121C13.8591 16.5131 13.8261 16.5115 13.8102 16.5099C13.795 16.5084 13.8165 16.5088 13.8558 16.5238C13.9012 16.5411 13.9518 16.5708 13.9963 16.6135L13.4772 17.1549L12.9582 17.6963C13.1896 17.9181 13.4585 17.9826 13.6634 18.0027C13.8425 18.0203 14.0522 18.0097 14.2264 18.0023L14.1947 17.253ZM13.3489 16.43H12.5989C12.5989 16.6087 12.5972 16.8206 12.6221 16.9998C12.6502 17.2024 12.7244 17.4722 12.9582 17.6963L13.4772 17.1549L13.9963 16.6135C14.0423 16.6576 14.0743 16.7081 14.0931 16.7523C14.1093 16.7903 14.1102 16.8107 14.1079 16.7938C14.1054 16.7763 14.1024 16.7416 14.1007 16.6757C14.099 16.6103 14.0989 16.5332 14.0989 16.43H13.3489Z" fill="#CCCCCC"/>
</svg>
