<svg width="27" height="27" viewBox="0 0 9 9" fill="none" xmlns="http://www.w3.org/2000/svg">
<path d="M5.58707 3.20502C5.40546 3.02436 5.30537 2.79238 5.30539 2.55225H4.48428V5.42262C4.47808 5.57799 4.40284 5.72518 4.27444 5.83315C4.14603 5.94112 3.97451 6.00141 3.79604 6.00132C3.4187 6.00132 3.10514 5.7328 3.10514 5.39947C3.10514 5.00132 3.54625 4.70271 4.00065 4.82539V4.09391C3.08388 3.98743 2.28137 4.6078 2.28137 5.39947C2.28137 6.1703 3.01479 6.71891 3.79338 6.71891C4.62778 6.71891 5.30539 6.12864 5.30539 5.39947V3.94345C5.63836 4.15175 6.03811 4.26351 6.44804 4.26289V3.54762C6.44804 3.54762 5.94846 3.56845 5.58707 3.20502Z" fill="#fff"/>
</svg>
