<svg width="61" height="61" viewBox="0 0 61 61" fill="none" xmlns="http://www.w3.org/2000/svg">
<rect x="0.5" y="0.5" width="60" height="60" rx="30" fill="#4B2A45"/>
<path d="M27.5821 21.5905C27.5821 20.7467 27.8894 19.9374 28.4363 19.3408C28.9832 18.7441 29.725 18.4089 30.4985 18.4089C31.272 18.4089 32.0137 18.7441 32.5607 19.3408C33.1076 19.9374 33.4148 20.7467 33.4148 21.5905C33.4148 22.4343 33.1076 23.2435 32.5607 23.8401C32.0137 24.4368 31.272 24.772 30.4985 24.772C29.725 24.772 28.9832 24.4368 28.4363 23.8401C27.8894 23.2435 27.5821 22.4343 27.5821 21.5905ZM30.4985 16.5C29.2609 16.5 28.0741 17.0363 27.199 17.991C26.3239 18.9456 25.8323 20.2404 25.8323 21.5905C25.8323 22.9405 26.3239 24.2353 27.199 25.19C28.0741 26.1446 29.2609 26.6809 30.4985 26.6809C31.736 26.6809 32.9229 26.1446 33.798 25.19C34.673 24.2353 35.1647 22.9405 35.1647 21.5905C35.1647 20.2404 34.673 18.9456 33.798 17.991C32.9229 17.0363 31.736 16.5 30.4985 16.5ZM20.5829 22.2268C19.9641 22.2268 19.3707 22.4949 18.9332 22.9722C18.4956 23.4496 18.2498 24.097 18.2498 24.772C18.2498 25.447 18.4956 26.0944 18.9332 26.5717C19.3707 27.0491 19.9641 27.3172 20.5829 27.3172C21.2017 27.3172 21.7951 27.0491 22.2326 26.5717C22.6702 26.0944 22.916 25.447 22.916 24.772C22.916 24.097 22.6702 23.4496 22.2326 22.9722C21.7951 22.4949 21.2017 22.2268 20.5829 22.2268ZM16.5 24.772C16.5 24.1871 16.6056 23.6079 16.8108 23.0675C17.016 22.5271 17.3167 22.036 17.6959 21.6224C18.075 21.2088 18.5251 20.8807 19.0204 20.6569C19.5158 20.4331 20.0467 20.3178 20.5829 20.3178C21.1191 20.3178 21.65 20.4331 22.1453 20.6569C22.6407 20.8807 23.0908 21.2088 23.4699 21.6224C23.8491 22.036 24.1498 22.5271 24.355 23.0675C24.5602 23.6079 24.6658 24.1871 24.6658 24.772C24.6658 25.9533 24.2356 27.0862 23.4699 27.9216C22.7042 28.7569 21.6657 29.2261 20.5829 29.2261C19.5 29.2261 18.4615 28.7569 17.6959 27.9216C16.9302 27.0862 16.5 25.9533 16.5 24.772ZM40.4141 22.2268C39.7953 22.2268 39.2019 22.4949 38.7644 22.9722C38.3268 23.4496 38.081 24.097 38.081 24.772C38.081 25.447 38.3268 26.0944 38.7644 26.5717C39.2019 27.0491 39.7953 27.3172 40.4141 27.3172C41.0329 27.3172 41.6263 27.0491 42.0638 26.5717C42.5014 26.0944 42.7472 25.447 42.7472 24.772C42.7472 24.097 42.5014 23.4496 42.0638 22.9722C41.6263 22.4949 41.0329 22.2268 40.4141 22.2268ZM36.3312 24.772C36.3312 23.5907 36.7614 22.4578 37.527 21.6224C38.2927 20.7871 39.3312 20.3178 40.4141 20.3178C41.4969 20.3178 42.5354 20.7871 43.3011 21.6224C44.0668 22.4578 44.497 23.5907 44.497 24.772C44.497 25.9533 44.0668 27.0862 43.3011 27.9216C42.5354 28.7569 41.4969 29.2261 40.4141 29.2261C39.3312 29.2261 38.2927 28.7569 37.527 27.9216C36.7614 27.0862 36.3312 25.9533 36.3312 24.772ZM24.6658 31.4532C24.6658 30.2239 25.5804 29.2261 26.7072 29.2261H34.2897C35.4166 29.2261 36.3312 30.2239 36.3312 31.4532V38.1345C36.3312 39.822 35.7167 41.4405 34.6228 42.6338C33.529 43.8271 32.0454 44.4975 30.4985 44.4975C28.9516 44.4975 27.468 43.8271 26.3741 42.6338C25.2803 41.4405 24.6658 39.822 24.6658 38.1345V31.4532ZM26.7072 31.1351C26.6299 31.1351 26.5557 31.1686 26.501 31.2283C26.4463 31.2879 26.4156 31.3688 26.4156 31.4532V38.1345C26.4156 39.3158 26.8458 40.4487 27.6114 41.284C28.3771 42.1193 29.4156 42.5886 30.4985 42.5886C31.5813 42.5886 32.6198 42.1193 33.3855 41.284C34.1512 40.4487 34.5814 39.3158 34.5814 38.1345V31.4532C34.5814 31.3688 34.5507 31.2879 34.496 31.2283C34.4413 31.1686 34.3671 31.1351 34.2897 31.1351H26.7072ZM23.4992 31.4558L18.013 33.0593C17.754 33.135 17.5112 33.2657 17.2985 33.4438C17.0858 33.6219 16.9074 33.844 16.7734 34.0974C16.6394 34.3508 16.5525 34.6305 16.5176 34.9205C16.4827 35.2105 16.5005 35.5052 16.57 35.7878L17.5511 39.7825C17.7754 40.6969 18.184 41.5451 18.747 42.2654C19.31 42.9857 20.0131 43.5599 20.8053 43.9462C21.5975 44.3324 22.4586 44.521 23.3261 44.4981C24.1935 44.4753 25.0453 44.2416 25.8195 43.8141C25.3648 43.3685 24.9655 42.8598 24.632 42.301C24.5052 42.3536 24.3753 42.3994 24.2423 42.4384C23.7244 42.5899 23.1842 42.6286 22.6525 42.5522C22.1209 42.4759 21.6082 42.2861 21.1438 41.9936C20.6794 41.7011 20.2724 41.3117 19.946 40.8476C19.6196 40.3835 19.3801 39.8538 19.2414 39.2887L18.2603 35.2927C18.2404 35.2112 18.2509 35.1244 18.2896 35.0513C18.3284 34.9783 18.3921 34.9251 18.4668 34.9033L23.4992 33.4321V31.4558ZM35.1787 43.8129C35.5325 44.008 35.9081 44.1645 36.3055 44.2825C37.0455 44.4988 37.8172 44.554 38.5767 44.4449C39.3361 44.3358 40.0685 44.0646 40.7319 43.6467C41.3952 43.2288 41.9767 42.6725 42.443 42.0095C42.9092 41.3465 43.2512 40.5897 43.4494 39.7825L44.4305 35.7865C44.5705 35.2161 44.4972 34.6083 44.2266 34.0969C43.956 33.5855 43.5103 33.2123 42.9875 33.0593L37.4977 31.4558V33.4309L42.5349 34.9033C42.6094 34.9253 42.6728 34.9787 42.7113 35.0517C42.7498 35.1247 42.7602 35.2114 42.7402 35.2927L41.7603 39.2887C41.6125 39.8906 41.3507 40.452 40.9916 40.9365C40.6326 41.4211 40.1843 41.8181 39.6758 42.1019C39.1674 42.3856 38.61 42.5499 38.0397 42.584C37.4694 42.618 36.8989 42.5212 36.365 42.2997C36.0314 42.8597 35.6313 43.3687 35.1787 43.8129Z" fill="#C818A9"/>
</svg>
