<svg width="20" height="21" viewBox="0 0 20 21" fill="none" xmlns="http://www.w3.org/2000/svg">
<path d="M16.0834 14.6995C16.4167 14.1162 16.6667 13.4495 16.6667 12.6995C16.6667 10.6162 15 8.94953 12.9167 8.94953C10.8334 8.94953 9.16669 10.6162 9.16669 12.6995C9.16669 14.7829 10.8334 16.4495 12.9167 16.4495C13.6667 16.4495 14.3334 16.1995 14.9167 15.8662L17.5834 18.5329L18.75 17.3662L16.0834 14.6995ZM12.9167 14.7829C11.75 14.7829 10.8334 13.8662 10.8334 12.6995C10.8334 11.5329 11.75 10.6162 12.9167 10.6162C14.0834 10.6162 15 11.5329 15 12.6995C15 13.8662 14.0834 14.7829 12.9167 14.7829ZM10 17.2829V18.9495C5.40002 18.9495 1.66669 15.2162 1.66669 10.6162C1.66669 6.0162 5.40002 2.28287 10 2.28287C14.0334 2.28287 17.3917 5.14953 18.1667 8.94953H16.4417C16.1818 7.94273 15.69 7.01068 15.0055 6.22788C14.3211 5.44507 13.4631 4.83322 12.5 4.4412V4.78287C12.5 5.69953 11.75 6.44953 10.8334 6.44953H9.16669V8.1162C9.16669 8.57453 8.79169 8.94953 8.33335 8.94953H6.66669V10.6162H8.33335V13.1162H7.50002L3.50835 9.12453C3.40002 9.60787 3.33335 10.0995 3.33335 10.6162C3.33335 14.2912 6.32502 17.2829 10 17.2829Z" fill="#CCCCCC"/>
</svg>
